name Walk2.mot
datacolumns 19
datarows 30
range 1.65100000 1.68000000
endheader

                time	   L_ground_force_vx	   L_ground_force_vy	   L_ground_force_vz	   L_ground_force_px	   L_ground_force_py	   L_ground_force_pz	   R_ground_force_vx	   R_ground_force_vy	   R_ground_force_vz	   R_ground_force_px	   R_ground_force_py	   R_ground_force_pz	   L_ground_torque_x	   L_ground_torque_y	   L_ground_torque_z	   R_ground_torque_x	   R_ground_torque_y	   R_ground_torque_z	
          1.65100000	         14.08705261	        561.95179081	         38.22442340	         -0.35197244	          0.00000000	         -0.08464860	         -0.00706911	          0.19095987	          0.01114894	          0.00008291	          0.00000000	          0.00007129	          0.00000000	         -0.45015171	          0.00000000	          0.00000000	         -0.00002655	          0.00000000	
          1.65200000	         14.45250478	        563.24851037	         38.39085560	         -0.35174757	          0.00000000	         -0.08468941	         -0.00807355	          0.20137687	          0.01145252	          0.00008655	          0.00000000	          0.00007434	          0.00000000	         -0.45343806	          0.00000000	          0.00000000	         -0.00002058	          0.00000000	
          1.65300000	         14.82069000	        564.55379262	         38.55921376	         -0.35152454	          0.00000000	         -0.08472907	         -0.00913799	          0.21193020	          0.01173700	          0.00009016	          0.00000000	          0.00007736	          0.00000000	         -0.45675684	          0.00000000	          0.00000000	         -0.00001396	          0.00000000	
          1.65400000	         15.19157338	        565.86805322	         38.72938811	         -0.35130331	          0.00000000	         -0.08476758	         -0.01026360	          0.22258895	          0.01199944	          0.00009373	          0.00000000	          0.00008034	          0.00000000	         -0.46011662	          0.00000000	          0.00000000	         -0.00000668	          0.00000000	
          1.65500000	         15.56512166	        567.19170520	         38.90126613	         -0.35108384	          0.00000000	         -0.08480496	         -0.01145142	          0.23331889	          0.01223672	          0.00009725	          0.00000000	          0.00008326	          0.00000000	         -0.46352582	          0.00000000	          0.00000000	          0.00000132	          0.00000000	
          1.65600000	         15.94130221	        568.52515948	         39.07473304	         -0.35086608	          0.00000000	         -0.08484120	         -0.01270232	          0.24408233	          0.01244551	          0.00010070	          0.00000000	          0.00008611	          0.00000000	         -0.46699273	          0.00000000	          0.00000000	          0.00001005	          0.00000000	
          1.65700000	         16.32008198	        569.86882531	         39.24967221	         -0.35064999	          0.00000000	         -0.08487633	         -0.01401700	          0.25483792	          0.01262230	          0.00010405	          0.00000000	          0.00008888	          0.00000000	         -0.47052559	          0.00000000	          0.00000000	          0.00001955	          0.00000000	
          1.65800000	         16.70142640	        571.22311059	         39.42596555	         -0.35043552	          0.00000000	         -0.08491037	         -0.01539597	          0.26554052	          0.01276339	          0.00010728	          0.00000000	          0.00009153	          0.00000000	         -0.47413272	          0.00000000	          0.00000000	          0.00002985	          0.00000000	
          1.65900000	         17.08529845	        572.58842176	         39.60349406	         -0.35022263	          0.00000000	         -0.08494332	         -0.01683948	          0.27614099	          0.01286489	          0.00011037	          0.00000000	          0.00009405	          0.00000000	         -0.47782267	          0.00000000	          0.00000000	          0.00004098	          0.00000000	
          1.66000000	         17.47165799	        573.96516338	         39.78213835	         -0.35001127	          0.00000000	         -0.08497521	         -0.01834760	          0.28658609	          0.01292268	          0.00011329	          0.00000000	          0.00009642	          0.00000000	         -0.48160430	          0.00000000	          0.00000000	          0.00005299	          0.00000000	
          1.66100000	         17.86046156	        575.35373710	         39.96177912	         -0.34980139	          0.00000000	         -0.08500604	         -0.01992008	          0.29681821	          0.01293247	          0.00011601	          0.00000000	          0.00009861	          0.00000000	         -0.48548662	          0.00000000	          0.00000000	          0.00006588	          0.00000000	
          1.66200000	         18.25166246	        576.75453942	         40.14229755	         -0.34959296	          0.00000000	         -0.08503583	         -0.02155641	          0.30677533	          0.01288976	          0.00011851	          0.00000000	          0.00010059	          0.00000000	         -0.48947877	          0.00000000	          0.00000000	          0.00007971	          0.00000000	
          1.66300000	         18.64521108	        578.16795775	         40.32357538	         -0.34938591	          0.00000000	         -0.08506459	         -0.02325577	          0.31639075	          0.01278985	          0.00012075	          0.00000000	          0.00010235	          0.00000000	         -0.49358977	          0.00000000	          0.00000000	          0.00009449	          0.00000000	
          1.66400000	         19.04105531	        579.59436442	         40.50549482	         -0.34918020	          0.00000000	         -0.08509231	         -0.02501701	          0.32559303	          0.01262784	          0.00012270	          0.00000000	          0.00010384	          0.00000000	         -0.49782837	          0.00000000	          0.00000000	          0.00011025	          0.00000000	
          1.66500000	         19.43914085	        581.03410905	         40.68793833	         -0.34897580	          0.00000000	         -0.08511899	         -0.02683859	          0.33430575	          0.01239861	          0.00012433	          0.00000000	          0.00010504	          0.00000000	         -0.50220306	          0.00000000	          0.00000000	          0.00012702	          0.00000000	
          1.66600000	         19.83941150	        582.48751020	         40.87078841	         -0.34877266	          0.00000000	         -0.08514465	         -0.02871860	          0.34244746	          0.01209688	          0.00012559	          0.00000000	          0.00010593	          0.00000000	         -0.50672197	          0.00000000	          0.00000000	          0.00014483	          0.00000000	
          1.66700000	         20.24180938	        583.95484742	         41.05392738	         -0.34857075	          0.00000000	         -0.08516928	         -0.03065470	          0.34993145	          0.01171716	          0.00012645	          0.00000000	          0.00010645	          0.00000000	         -0.51139285	          0.00000000	          0.00000000	          0.00016369	          0.00000000	
          1.66800000	         20.64627540	        585.43635500	         41.23723743	         -0.34837004	          0.00000000	         -0.08519289	         -0.03264411	          0.35666571	          0.01125376	          0.00012687	          0.00000000	          0.00010659	          0.00000000	         -0.51622297	          0.00000000	          0.00000000	          0.00018363	          0.00000000	
          1.66900000	         21.05274995	        586.93221809	         41.42060062	         -0.34817050	          0.00000000	         -0.08521550	         -0.03468357	          0.36255276	          0.01070082	          0.00012680	          0.00000000	          0.00010630	          0.00000000	         -0.52121906	          0.00000000	          0.00000000	          0.00020466	          0.00000000	
          1.67000000	         21.46117382	        588.44257136	         41.60389883	         -0.34797208	          0.00000000	         -0.08523711	         -0.03676931	          0.36748955	          0.01005230	          0.00012620	          0.00000000	          0.00010554	          0.00000000	         -0.52638726	          0.00000000	          0.00000000	          0.00022681	          0.00000000	
          1.67100000	         21.87148946	        589.96749964	         41.78701351	         -0.34777477	          0.00000000	         -0.08525775	         -0.03889702	          0.37136739	          0.00930201	          0.00012503	          0.00000000	          0.00010427	          0.00000000	         -0.53173317	          0.00000000	          0.00000000	          0.00025007	          0.00000000	
          1.67200000	         22.28364239	        591.50703955	         41.96982522	         -0.34757851	          0.00000000	         -0.08527742	         -0.04106180	          0.37407187	          0.00844357	          0.00012323	          0.00000000	          0.00010246	          0.00000000	         -0.53726194	          0.00000000	          0.00000000	          0.00027446	          0.00000000	
          1.67300000	         22.69758257	        593.06118181	         42.15221330	         -0.34738330	          0.00000000	         -0.08529615	         -0.04325816	          0.37548277	          0.00747050	          0.00012075	          0.00000000	          0.00010006	          0.00000000	         -0.54297840	          0.00000000	          0.00000000	          0.00029999	          0.00000000	
          1.67400000	         23.11326572	        594.62987363	         42.33405588	         -0.34718909	          0.00000000	         -0.08531395	         -0.04547996	          0.37547408	          0.00637615	          0.00011755	          0.00000000	          0.00009702	          0.00000000	         -0.54888709	          0.00000000	          0.00000000	          0.00032665	          0.00000000	
          1.67500000	         23.53065440	        596.21302127	         42.51523041	         -0.34699588	          0.00000000	         -0.08533083	         -0.04772040	          0.37391390	          0.00515378	          0.00011356	          0.00000000	          0.00009330	          0.00000000	         -0.55499230	          0.00000000	          0.00000000	          0.00035444	          0.00000000	
          1.67600000	         23.94971889	        597.81049246	         42.69561462	         -0.34680364	          0.00000000	         -0.08534679	         -0.04997195	          0.37066452	          0.00379653	          0.00010874	          0.00000000	          0.00008884	          0.00000000	         -0.56129811	          0.00000000	          0.00000000	          0.00038334	          0.00000000	
          1.67700000	         24.37043786	        599.42211835	         42.87508747	         -0.34661237	          0.00000000	         -0.08536184	         -0.05222635	          0.36558237	          0.00229748	          0.00010301	          0.00000000	          0.00008361	          0.00000000	         -0.56780834	          0.00000000	          0.00000000	          0.00041335	          0.00000000	
          1.67800000	         24.79279883	        601.04769459	         43.05352974	         -0.34642205	          0.00000000	         -0.08537598	         -0.05447454	          0.35851814	          0.00064964	          0.00009633	          0.00000000	          0.00007754	          0.00000000	         -0.57452665	          0.00000000	          0.00000000	          0.00044445	          0.00000000	
          1.67900000	         25.21679857	        602.68698114	         43.23082414	         -0.34623268	          0.00000000	         -0.08538920	         -0.05670668	          0.34931683	         -0.00115400	          0.00008863	          0.00000000	          0.00007059	          0.00000000	         -0.58145665	          0.00000000	          0.00000000	          0.00047659	          0.00000000	
          1.68000000	         25.64244337	        604.33970123	         43.40685490	         -0.34604426	          0.00000000	         -0.08540148	         -0.05891204	          0.33781783	         -0.00312048	          0.00007985	          0.00000000	          0.00006270	          0.00000000	         -0.58860192	          0.00000000	          0.00000000	          0.00050975	          0.00000000	
